<?xml version="1.0" encoding="UTF-8"?>
<svg id="Capa_2" data-name="Capa 2" xmlns="http://www.w3.org/2000/svg" viewBox="0 0 450 122.15">
  <defs>
    <style>
      .cls-1 {
        fill: #07519f;
      }
    </style>
  </defs>
  <g id="Layer_1" data-name="Layer 1">
    <g>
      <path class="cls-1" d="M347.06,37.83c-.23-1.07-1.01-2.02-2.09-2.31-1.25-.32-2.71-.3-3.81.46-.94.68-1.19,1.9-1.37,2.97-.29,2.03-.34,4.08-.33,6.13,2.73,0,5.45,0,8.18,0-.02-2.43-.02-4.89-.59-7.26Z"/>
      <path class="cls-1" d="M359.63,91.68c-1.26,0-2.29.75-2.29,1.67v2.37h4.57v-2.37c0-.92-1.03-1.67-2.29-1.67Z"/>
      <path class="cls-1" d="M396.7,91.68c-1.26,0-2.29.75-2.29,1.67v2.37h4.57v-2.37c0-.92-1.02-1.67-2.29-1.67Z"/>
      <path class="cls-1" d="M276.98,37.25c-.61-.93-1.73-1.37-2.8-1.44-1.33-.16-2.62.29-3.93.44-.02,9.68,0,19.35,0,29.03,1.21.78,2.72.75,4.11.74,1.53-.01,3.1-1.01,3.51-2.53.23-.88.18-1.81.27-2.71.3-6.15.56-12.32.12-18.47-.19-1.72-.27-3.58-1.28-5.06Z"/>
      <path class="cls-1" d="M198.34,36c-1.1-.79-2.6-.81-3.87-.45-1.13.31-1.86,1.39-2.06,2.5-.49,2.31-.48,4.69-.51,7.05,2.73,0,5.45,0,8.18,0,0-2.07-.05-4.15-.36-6.21-.18-1.06-.46-2.23-1.38-2.89Z"/>
      <path class="cls-1" d="M318.82,91.68c-1.08,0-1.97.75-1.97,1.67v9.4c0,.93.88,1.67,1.97,1.67s1.96-.75,1.96-1.67v-9.4c0-.92-.88-1.67-1.96-1.67Z"/>
      <path class="cls-1" d="M437.02,63.78c0-.27-.09-.48-.29-.66-.2-.18-.53-.26-.98-.26h-1.96v1.88h1.74c.39,0,.69-.04.89-.12.2-.07.34-.18.44-.33.1-.16.15-.33.15-.51Z"/>
      <path class="cls-1" d="M435.64,59.74c-3.04,0-5.51,2.47-5.51,5.51s2.47,5.51,5.51,5.51,5.51-2.47,5.51-5.51-2.47-5.51-5.51-5.51ZM437.45,68.84l-.94-1.48c-.26-.4-.47-.7-.63-.91-.15-.2-.29-.34-.41-.41-.12-.07-.24-.13-.35-.16-.06-.01-.18-.03-.45-.03h-.86v2.98h-1.23v-7.06h3.15c.62,0,1.09.06,1.43.19.35.13.63.37.83.71.2.33.3.7.3,1.1,0,.52-.17.97-.51,1.32-.25.27-.61.46-1.07.58.06.04.12.09.16.13.27.25.53.56.77.93l1.34,2.09h-1.52Z"/>
      <path class="cls-1" d="M424.16,0H25.84C11.63,0,0,11.63,0,25.84v70.47c0,14.21,11.63,25.84,25.84,25.84h398.32c14.21,0,25.84-11.63,25.84-25.84V25.84c0-14.21-11.63-25.84-25.84-25.84ZM298.29,29.27c3.58,0,7.16,0,10.74,0,.26.6.54,1.19.81,1.79,2.84-1.9,6.35-2.41,9.7-2.37,1.54-.04,3.06.29,4.49.85,0,2.99,0,5.99,0,8.98-1.42-.42-2.86-.81-4.34-.96-1.74-.19-3.5-.12-5.23.03-1.04.09-2.1.24-3.02.76,0,11.25,0,22.5,0,33.74h-13.13V29.27ZM42.08,60.43c.22,1.47.37,3.1,1.44,4.23.98,1.07,2.52,1.38,3.92,1.32,1.16-.02,2.49-.23,3.26-1.18.72-.97.9-2.2,1.09-3.36,4.08.01,8.16,0,12.24,0,.07,2.51-.72,5.13-2.53,6.93-1.13,1.19-2.6,2-4.11,2.61-3.17,1.23-6.59,1.6-9.96,1.71-4.05.15-8.23-.19-12-1.78-3.54-1.45-6.53-4.18-8.28-7.58-2.15-4.14-2.7-8.9-2.64-13.5.07-4.86,1.03-9.92,3.92-13.92,2.42-3.41,6.24-5.59,10.25-6.58,3.61-.91,7.36-1.05,11.06-.84,3.59.24,7.26.94,10.39,2.82,2.14,1.28,3.85,3.32,4.6,5.71.46,1.41.63,2.89.65,4.36-4.84,0-9.68,0-14.52,0-.03-1.48-.05-2.99-.53-4.4-.32-.97-1.28-1.59-2.26-1.74-1.36-.21-2.88-.1-4.01.78-.94.73-1.41,1.9-1.64,3.04-.51,2.48-.61,5.03-.7,7.56-.07,4.6-.13,9.22.37,13.8ZM85.96,72.48c-5.47,0-10.93,0-16.4,0,0-14.42,0-28.83,0-43.25,5.47,0,10.93,0,16.4,0v43.25ZM86.38,25.19h-17.17c0-3.11,0-6.22,0-9.33h17.17c0,3.11,0,6.22,0,9.33ZM114.38,64.64c.51.74,1.36,1.15,2.2,1.38,1.91.52,3.9.52,5.87.59,0,1.93,0,3.86,0,5.79h-8.32c-3.37.04-6.8-.13-10.03-1.16-1.88-.62-3.74-1.57-5.05-3.09-1.08-1.24-1.72-2.83-1.93-4.45-.13-.87-.08-1.76-.09-2.63,0-8.8,0-17.59,0-26.39-2.07,0-4.15,0-6.22,0,0-1.84,0-3.69,0-5.53,2.08,0,4.15.01,6.23-.01-.02-4.4,0-8.8,0-13.2,5.52,0,11.04,0,16.56,0,0,4.4,0,8.81,0,13.21,3.39,0,6.78,0,10.17,0,0,1.84,0,3.69,0,5.53-3.39,0-6.78,0-10.18,0,0,8.9,0,17.8,0,26.7,0,1.12.14,2.31.8,3.25ZM171.48,71.67c-.09,2.42-1.01,4.82-2.67,6.59-1.94,2.1-4.59,3.38-7.28,4.25-4.99,1.55-10.27,1.82-15.46,1.77-5.33-.15-10.69-.64-15.83-2.13.59-1.69,1.14-3.39,1.73-5.07,3.64.72,7.33,1.17,11.04,1.33,2.68.11,5.42.14,8.01-.68,1.57-.5,3.07-1.46,3.88-2.93.85-1.54,1.09-3.41.7-5.12-.06-.31-.09-.62-.13-.93-.56.47-1.11.96-1.68,1.42-.17.16-.44.09-.65.12-3.44-.01-6.88,0-10.32,0-5.01-3.86-10.02-7.72-15.03-11.58,0-9.85,0-19.7,0-29.56,5.47,0,10.93,0,16.4,0,0,10.07,0,20.14,0,30.21,2.45,1.93,4.9,3.84,7.33,5.78,1.2-1.05,2.38-2.13,3.57-3.18V29.15c5.47,0,10.94,0,16.4,0,0,12.43,0,24.86,0,37.3-.02,1.74.03,3.48-.02,5.22ZM210.95,51.31c-6.36,0-12.73,0-19.09,0-.02,2.54.04,5.08.22,7.62.14,1.53.23,3.09.75,4.55.41,1.18,1.46,2.11,2.7,2.31,1.32.2,2.87.13,3.88-.85.86-.91.97-2.25.98-3.44,3.12,0,6.25,0,9.37,0,.04,2.65-.62,5.48-2.52,7.42-2.07,2.17-5.11,3.02-7.99,3.39-3.69.42-7.56.45-11.07-.94-3.2-1.23-5.79-3.77-7.31-6.82-2.15-4.19-2.67-8.98-2.75-13.62,0-4.57.47-9.28,2.43-13.47.96-2.03,2.31-3.9,4.06-5.31,2.03-1.67,4.54-2.67,7.11-3.12,1.97-.36,3.99-.4,5.98-.3,3.07.19,6.22,1.11,8.54,3.21,2.35,2.11,3.57,5.18,4.17,8.23.75,3.67.51,7.43.55,11.15ZM250.97,72.09c-4.37,0-8.73,0-13.1,0,0-5.02,0-10.05,0-15.07-1.92-1.53-3.82-3.07-5.74-4.6-1,.77-2,1.53-2.99,2.32.01,5.78,0,11.57,0,17.35h-13.14c0-4.09,0-8.17,0-12.26,0-1.15.69-2.15,1.42-2.97.94-1.08,2.13-1.88,3.26-2.75,2.32-1.75,4.63-3.51,6.94-5.26-3.57-2.86-7.14-5.72-10.71-8.57,0-3.67,0-7.34,0-11.01,4.38,0,8.76,0,13.14,0,0,3.09,0,6.18,0,9.26,1.8,1.46,3.61,2.93,5.42,4.38.63-.47,1.25-.96,1.9-1.41.04-4.08,0-8.15.02-12.23,4.28,0,8.55,0,12.83,0,0,2.1,0,4.2,0,6.3,0,1.44-.54,2.84-1.42,3.96-.63.76-1.38,1.41-2.18,1.97-2.24,1.67-4.48,3.34-6.71,5.01,3.69,2.97,7.36,5.94,11.05,8.92-.01,5.56,0,11.11,0,16.67ZM272.96,71.84c-.93-.13-1.88-.28-2.72-.73,0,4.09,0,8.18,0,12.27-4.34,0-8.68,0-13.02,0,0-4.11,0-8.22,0-12.33-.08-4.76-.02-9.52-.04-14.29.03-3.69-.06-7.37-.04-11.06-.01-5.48.03-10.96-.04-16.44,3.63,0,7.26,0,10.89,0,.23.64.44,1.3.7,1.93,2.83-1.9,6.31-2.42,9.65-2.51,2.71-.13,5.54.2,7.92,1.57,2.53,1.43,4.24,4.04,4.93,6.82.75,3.07.82,6.24.96,9.38.11,4.21.06,8.43-.36,12.62-.2,1.8-.34,3.64-1.02,5.34-.87,2.33-2.58,4.3-4.69,5.61-2.18,1.35-4.74,1.95-7.28,2.05-1.96.03-3.92,0-5.86-.24ZM304.49,107.11h-7.75v-13.22c0-1.44-.91-2.01-2.39-2.01s-2.51.53-2.51,1.47v13.76h-7.75v-23.7h7.75v6.48c.9-.65,2.43-1.05,4.43-1.05,3.31,0,8.22,0,8.22,5.05v13.22ZM328.82,99.93c0,3.97-3.6,7.18-8.03,7.18h-3.93c-4.44,0-8.03-3.21-8.03-7.18v-3.99c0-3.97,3.6-7.18,8.03-7.18h3.93c4.44,0,8.03,3.21,8.03,7.18v3.99ZM346.54,91.68h-4.73v11.62c0,.8.86,1.45,1.93,1.45h2.26v2.3h-7.79c-2.15,0-3.9-1.31-3.9-2.93v-12.44h-3.03v-2.57h3.03v-5.53h7.51v5.53h4.73v2.57ZM336.13,71.51c-2.46-.87-4.63-2.49-6.2-4.56-1.61-2.09-2.62-4.58-3.25-7.13-.87-3.56-1.06-7.24-.96-10.89.09-2.88.44-5.77,1.27-8.54.72-2.4,1.85-4.71,3.5-6.61,1.71-2.01,4.04-3.44,6.55-4.21,2.08-.64,4.27-.91,6.44-.88,3.03-.05,6.18.48,8.78,2.1,1.93,1.18,3.4,3.01,4.34,5.06,1.23,2.65,1.71,5.57,1.87,8.46.1,2.33.07,4.67.07,7-6.37,0-12.75,0-19.12,0,0,3.43.02,6.88.5,10.28.2,1.44.67,3.05,2.03,3.79,1.36.68,3.09.67,4.45-.02,1.35-.75,1.55-2.49,1.55-3.88,3.12,0,6.25,0,9.37,0,.01,2.59-.59,5.36-2.42,7.3-2.05,2.24-5.13,3.11-8.05,3.5-3.57.41-7.31.46-10.73-.79ZM368.39,98.48h-11.05v4.26c0,.93,1.02,1.67,2.29,1.67s2.29-.75,2.29-1.67v-.27h5.78c0,2.85-2.74,4.64-7.1,4.64h-3.25c-4.44,0-8.04-3.21-8.04-7.18v-3.99c0-3.97,3.6-7.18,8.04-7.18h3.02c4.43,0,8.03,3.21,8.03,7.18v2.54ZM383.5,107.05h-6.5c-2.15,0-3.9-1.31-3.9-2.93v-20.53h7.51v19.72c0,.8.86,1.45,1.93,1.45h.97v2.3ZM374.66,72.4c-2.81-.29-5.7-.97-8-2.68-1.62-1.16-2.79-2.9-3.33-4.81-.34-1.19-.49-2.44-.47-3.68,3.52,0,7.04,0,10.56,0,.04,1.13.17,2.36.98,3.22,1,1.07,2.59,1.25,3.97,1.1,1.05-.09,2.2-.49,2.74-1.47.49-.92.59-2.11.07-3.04-.59-1.11-1.59-1.91-2.54-2.7-3.55-2.92-7.62-5.19-10.95-8.38-1.24-1.21-2.41-2.57-3.04-4.2-.67-1.62-1-3.37-1.12-5.11-.1-1.74-.1-3.56.62-5.18.77-1.85,2.24-3.33,3.93-4.37,2.48-1.55,5.42-2.2,8.31-2.37,2.57-.13,5.19-.03,7.7.58,2.18.52,4.3,1.53,5.9,3.12,1.92,1.89,2.78,4.64,2.7,7.29h-10.55c-.02-1.27-.38-2.61-1.35-3.49-.88-.81-2.16-1.01-3.3-.84-.89.12-1.77.54-2.31,1.28-.5.69-.61,1.6-.49,2.42.17,1.36.9,2.6,1.87,3.56,3.64,3.44,8.1,5.87,11.78,9.26,1.46,1.33,2.83,2.82,3.68,4.62,1.04,2.16,1.19,4.65.75,6.99-.34,1.84-1.22,3.58-2.54,4.92-1.72,1.79-4.05,2.88-6.43,3.48-2.97.72-6.08.76-9.11.48ZM405.46,98.48h-11.05v4.26c0,.93,1.03,1.67,2.29,1.67s2.29-.75,2.29-1.67v-.27h5.78c0,2.85-2.74,4.64-7.1,4.64h-3.25c-4.44,0-8.04-3.21-8.04-7.18v-3.99c0-3.97,3.6-7.18,8.04-7.18h3.02c4.44,0,8.03,3.21,8.03,7.18v2.54ZM420.87,97.31c3.55,2.05,4.9,3,4.9,5.35,0,2.17-2.18,4.48-7.08,4.48h-4.33c-1.75,0-6.12-1.03-6.12-4.67h6.12c0,1.71,1.78,1.79,2.24,1.79h.58c.72,0,1.97.04,1.97-1.25,0-1.06-3.57-2.56-4.44-3.01-3.41-1.79-6.13-3.33-6.13-6.66,0-2.17,2.18-4.48,7.08-4.48h3.99c1.75,0,6.12,1.03,6.12,4.67h-6.12c0-1.71-1.78-1.79-2.24-1.79-.72,0-1.98.19-1.98,1.48,0,.76.08,1.01,5.43,4.1ZM424.58,67.17c-1.29,1.87-3.22,3.22-5.31,4.05-2.4.96-4.99,1.29-7.56,1.33-2.45.02-4.92-.16-7.3-.79-2.16-.58-4.28-1.61-5.79-3.3-1.79-1.95-2.43-4.66-2.43-7.25,3.52,0,7.04,0,10.56,0,.03,1.12.18,2.35.98,3.22.88.96,2.27,1.19,3.51,1.15,1.06-.05,2.23-.29,2.95-1.14.79-1,.92-2.51.22-3.6-.87-1.41-2.28-2.35-3.54-3.38-3.59-2.81-7.66-5.07-10.76-8.46-2.13-2.18-3.03-5.23-3.24-8.2-.1-1.69-.15-3.44.48-5.03.82-2.25,2.67-3.96,4.74-5.08,2.99-1.61,6.45-2.07,9.8-2.03,2.41.03,4.85.29,7.12,1.1,1.9.68,3.69,1.81,4.96,3.39,1.47,1.83,2.09,4.23,2.04,6.55-3.52,0-7.04,0-10.56,0,.03-1.31-.41-2.68-1.42-3.56-1-.86-2.45-.98-3.69-.69-.93.24-1.83.84-2.17,1.77-.42,1.14-.19,2.43.33,3.5.64,1.43,1.91,2.41,3.07,3.4,2.73,2.27,5.76,4.14,8.5,6.4,1.65,1.37,3.27,2.81,4.48,4.6,1.13,1.69,1.76,3.72,1.76,5.76.04,2.19-.47,4.45-1.73,6.27ZM435.64,71.9c-3.67,0-6.65-2.98-6.65-6.65s2.98-6.65,6.65-6.65,6.65,2.98,6.65,6.65-2.98,6.65-6.65,6.65Z"/>
    </g>
  </g>
</svg>