<?xml version="1.0" encoding="UTF-8"?>
<svg id="Capa_2" data-name="Capa 2" xmlns="http://www.w3.org/2000/svg" viewBox="0 0 4692.25 1080">
  <defs>
    <style>
      .cls-1 {
        fill: #fff;
        fill-rule: evenodd;
      }
    </style>
  </defs>
  <g id="svg2">
    <g id="layer1">
      <path id="path7267" class="cls-1" d="M4095.41,22.44c-34.93,0-273.01,701.85-273.01,701.85h25.37s34.93-89.72,95.27-92.95c60.29-3.23,209.53,317.28,209.53,317.28,0,0,15.85,99.33,136.53,99.33h403.17v-28.82s-85.71,6.42-127.01-83.31c-41.26-89.77-441.24-913.39-469.83-913.39ZM3762.05,349.33V92.91S3638.23,0,3466.82,0s-380.99,83.31-380.99,352.52,400.02,307.68,400.02,448.7c0,73.7-60.21,80.07-101.6,80.07-136.48,0-269.83-205.08-269.83-205.08v278.82s136.48,118.58,307.94,118.58,387.32-102.56,387.32-371.77c0-320.47-409.54-326.89-409.54-467.92,0-73.7,44.31-64.09,85.71-64.09,136.53,0,276.2,179.49,276.2,179.49h0ZM2292.16,131.38c67.24,139.72,130.16,336.54,234.94,336.54,85.7,0,155.56-435.87,155.56-435.87h346.02v903.78c0,76.89,88.89,96.1,88.89,96.1h-453.99V390.98s-263.5,689.02-288.86,689.02-384.18-689.02-384.18-689.02v554.41c0,51.3,79.38,89.77,79.38,89.77h-203.2V128.19c0-60.91-98.41-102.56-98.41-102.56h352.39s117.49-6.42,171.46,105.75h0ZM1333.41,987.09s276.2,25.63,409.54-169.84l-53.97,217.91h-717.53V128.19c0-60.91-98.41-102.56-98.41-102.56h815.94l53.97,217.91c-133.34-195.47-409.54-169.84-409.54-169.84v423.03h225.42c69.82,0,107.93-118.58,107.93-118.58,0,0,73,336.54,69.82,333.31-57.15-105.75-231.75-160.24-231.75-160.24h-171.41v435.87ZM815.94,25.63H0s98.41,41.65,98.41,102.56v906.97h457.17s-95.22-32.05-95.22-105.79v-378.15h171.41s174.6,54.49,231.75,160.24c3.19,3.23-69.81-333.31-69.81-333.31,0,0-38.12,118.58-107.98,118.58h-225.38V73.7s276.2-25.63,409.54,169.84l-53.97-217.91"/>
    </g>
  </g>
</svg>