<?xml version="1.0" encoding="UTF-8"?>
<svg id="Capa_2" data-name="Capa 2" xmlns="http://www.w3.org/2000/svg" viewBox="0 0 1789.03 144.08">
  <defs>
    <style>
      .cls-1 {
        fill: #06f;
      }
    </style>
  </defs>
  <g id="Layer_1" data-name="Layer 1">
    <g>
      <rect class="cls-1" x="484.21" y="72.04" width="72.04" height="72.04"/>
      <polygon class="cls-1" points="1323.68 72.04 1323.68 144.08 1395.73 144.08 1467.77 144.08 1467.77 72.04 1395.73 72.04 1323.68 72.04"/>
      <polygon class="cls-1" points="966.56 72.04 896.37 72.04 896.37 0 824.33 0 824.33 72.04 752.29 72.04 752.29 144.08 824.33 144.08 896.37 144.08 966.56 144.08 968.42 144.08 1038.6 144.08 1038.6 72.04 968.42 72.04 966.56 72.04"/>
      <rect class="cls-1" x="1572.9" width="72.04" height="72.04"/>
      <polygon class="cls-1" points="1716.98 72.04 1644.94 72.04 1644.94 144.08 1716.98 144.08 1789.03 144.08 1789.03 72.04 1716.98 72.04"/>
      <polygon class="cls-1" points="216.13 0 144.08 0 72.04 0 72.04 72.04 144.08 72.04 144.08 144.08 216.13 144.08 288.17 144.08 288.17 72.04 216.13 72.04 216.13 0"/>
      <rect class="cls-1" y="72.04" width="72.04" height="72.04"/>
    </g>
  </g>
</svg>