<?xml version="1.0" encoding="UTF-8"?>
<svg id="Layer_2" data-name="Layer 2" xmlns="http://www.w3.org/2000/svg" viewBox="0 0 99.95 22.39">
  <defs>
    <style>
      .cls-1 {
        fill: #fff;
        stroke-width: 0px;
      }
    </style>
  </defs>
  <g id="Layer_1-2" data-name="Layer 1">
    <g>
      <g>
        <path class="cls-1" d="M38.77,9.48h-.48c-.12-.28-.29-.57-.5-.86-.25-.34-.57-.65-.93-.93-.36-.27-.78-.5-1.25-.66-.47-.17-.98-.25-1.51-.25-.94,0-1.82.17-2.62.51-.8.34-1.51.85-2.09,1.52-.58.66-1.03,1.49-1.36,2.46-.32.96-.49,2.09-.49,3.36s.16,2.37.49,3.33c.33.97.78,1.79,1.36,2.44.58.66,1.28,1.16,2.08,1.5.8.34,1.68.51,2.62.51.53,0,1.03-.08,1.51-.25.47-.17.89-.39,1.25-.66.36-.27.67-.59.93-.93.21-.29.38-.58.5-.86h.48v2.37h2.86V1.64h-2.86v7.84ZM37.42,10.76c.18.27.35.55.49.82l.07.13h.79v5.76h-.79l-.07.13c-.14.27-.31.55-.49.82-.17.26-.39.49-.65.7-.26.2-.57.37-.95.5-.37.13-.83.2-1.36.2s-.99-.1-1.45-.3c-.46-.2-.87-.51-1.22-.92-.36-.42-.65-.96-.88-1.61-.22-.65-.34-1.44-.34-2.36s.11-1.72.34-2.39c.22-.66.52-1.21.87-1.63.35-.42.77-.73,1.22-.92.46-.2.95-.3,1.45-.3.53,0,.98.07,1.36.2.37.13.69.3.95.5.26.21.48.44.65.7Z"/>
        <rect class="cls-1" x="44.23" y="1.64" width="2.86" height="3.4"/>
        <rect class="cls-1" x="44.23" y="7.14" width="2.86" height="14.92"/>
        <path class="cls-1" d="M68.81,8.03c-.45-.44-.98-.76-1.58-.95-.58-.18-1.22-.28-1.89-.28-1,0-1.85.25-2.53.73-.62.44-1.13.96-1.51,1.53h-.61c-.43-.81-1.01-1.4-1.74-1.73-.75-.35-1.58-.53-2.49-.53-.83,0-1.58.24-2.21.72-.58.43-1,.95-1.25,1.54h-.51v-1.9h-2.84v14.89h2.84v-10.77h.85l.06-.16c.05-.14.13-.3.25-.49.11-.18.26-.37.46-.56.19-.18.45-.34.76-.47.31-.13.71-.19,1.18-.19.61,0,1.08.09,1.4.26.32.17.57.39.73.64.16.25.26.54.3.86.04.34.05.67.05.98v9.9h2.84v-10.77h.85l.06-.16c.05-.14.13-.3.25-.49.11-.18.26-.37.46-.56.19-.18.45-.34.76-.47.31-.13.71-.19,1.18-.19.61,0,1.08.09,1.4.26.32.17.57.39.73.64.16.25.26.54.3.86.04.34.05.67.05.98v9.9h2.84v-9.62c0-1.05-.13-1.94-.38-2.65-.25-.72-.61-1.31-1.06-1.75Z"/>
        <path class="cls-1" d="M85.56,16.99h-2.92l-.04.2c-.09.43-.25.81-.49,1.13-.24.33-.54.61-.87.83-.34.23-.71.39-1.11.5-.41.11-.82.16-1.22.16-1.24,0-2.17-.39-2.84-1.2-.64-.76-1.02-1.79-1.14-3.06h10.86v-1.14c0-1.16-.17-2.22-.5-3.15-.34-.94-.81-1.75-1.42-2.4-.61-.65-1.34-1.17-2.18-1.52-.84-.36-1.77-.54-2.79-.54s-1.99.19-2.83.55c-.85.37-1.58.89-2.18,1.57-.6.67-1.06,1.5-1.39,2.47-.32.96-.49,2.04-.49,3.22s.16,2.25.49,3.2c.33.96.79,1.78,1.39,2.46.6.68,1.33,1.2,2.18,1.57.85.37,1.8.55,2.83.55.78,0,1.55-.12,2.28-.35.73-.23,1.4-.57,1.98-1,.59-.43,1.1-.97,1.51-1.6.42-.63.7-1.36.83-2.17l.05-.29ZM75.01,12.97c.2-1.07.61-1.94,1.21-2.57.65-.67,1.55-1.01,2.68-1.01.65,0,1.21.11,1.68.34.47.23.86.52,1.18.89.31.37.56.78.74,1.24.14.37.25.75.33,1.12h-7.82Z"/>
        <polygon class="cls-1" points="94.37 14.03 99.35 7.14 95.98 7.14 92.77 11.8 92.11 11.8 89.01 7.14 85.44 7.14 90.47 14.22 85.06 22.06 88.45 22.06 92.08 16.53 92.76 16.53 96.39 22.06 99.95 22.06 94.37 14.03"/>
      </g>
      <polygon class="cls-1" points="10.78 0 2.9 15.85 10.01 13.36 13.09 5.86 15.68 10.57 20.68 9.03 15.58 0 10.78 0"/>
      <polygon class="cls-1" points="19.33 17.2 22.02 21.81 27.79 21.81 23.08 13.74 19.33 17.2"/>
      <path class="cls-1" d="M0,21.81c.88-1.55,1.76-3.1,2.65-4.66,1.76-.71,3.87-1.56,6.29-2.49,4.64-1.79,7.39-2.85,11-3.97,1.83-.57,4.04-1.2,6.57-1.83-2.64,2.43-5.27,4.87-7.91,7.3-.39-.81-.78-1.62-1.17-2.43l-11.4,8.07H0Z"/>
    </g>
  </g>
</svg>