<?xml version="1.0" encoding="UTF-8"?>
<svg id="Capa_2" data-name="Capa 2" xmlns="http://www.w3.org/2000/svg" viewBox="0 0 111.07 111.07">
  <defs>
    <style>
      .cls-1 {
        fill: #f0f2f5;
      }

      .cls-2 {
        fill: #06f;
      }
    </style>
  </defs>
  <g id="Layer_1" data-name="Layer 1">
    <path class="cls-2" d="M79.62,106.78H31.36c-14.95,0-27.06-12.12-27.06-27.06V31.45c0-14.95,12.12-27.06,27.06-27.06h48.27c14.95,0,27.06,12.12,27.06,27.06v48.27c0,14.95-12.12,27.06-27.06,27.06Z"/>
    <g>
      <path class="cls-1" d="M45.55,111.07h-19.18c-14.56,0-26.37-11.81-26.37-26.37v-19.18h9.68v19.18c0,9.14,7.46,16.6,16.6,16.6h19.18v9.77h.09Z"/>
      <path class="cls-1" d="M84.7,111.07h-19.18v-9.68h19.18c9.14,0,16.6-7.46,16.6-16.6v-19.27h9.68v19.18c.09,14.47-11.81,26.37-26.28,26.37Z"/>
      <path class="cls-1" d="M111.07,45.55h-9.68v-19.18c0-9.14-7.46-16.6-16.6-16.6h-19.27V.09h19.18c14.56,0,26.37,11.81,26.37,26.37v19.09Z"/>
      <path class="cls-1" d="M9.77,45.55H.09v-19.18C.09,11.81,11.9,0,26.46,0h19.18v9.68h-19.18c-9.14,0-16.6,7.46-16.6,16.6v19.27h-.09Z"/>
    </g>
    <g>
      <polygon class="cls-1" points="48.55 31.29 31 66.6 46.84 61.04 53.69 44.34 59.47 54.83 70.6 51.41 59.26 31.29 48.55 31.29"/>
      <polygon class="cls-1" points="67.6 69.6 73.6 79.87 86.44 79.87 75.95 61.89 67.6 69.6"/>
      <path class="cls-1" d="M24.54,79.87c1.97-3.46,3.93-6.92,5.9-10.37,3.91-1.59,8.63-3.47,14.01-5.55,10.34-3.99,16.45-6.34,24.52-8.84,4.08-1.27,9-2.68,14.64-4.07-5.88,5.42-11.75,10.85-17.63,16.27-.87-1.81-1.74-3.61-2.61-5.42l-25.4,17.98h-13.43Z"/>
    </g>
  </g>
</svg>